<svg width="186" height="180" viewBox="0 0 186 180" fill="none" xmlns="http://www.w3.org/2000/svg">
<path d="M93.5987 179.416C140.468 179.416 178.408 141.491 178.408 94.746C178.408 47.9535 140.421 10.0762 93.5987 10.0762C46.7762 10.0762 8.78906 47.9535 8.78906 94.6988C8.78906 141.491 46.7762 179.416 93.5987 179.416Z" fill="url(#paint0_linear_8818_10688)"/>
<path d="M139.381 29.7461H45.4058C39.547 29.7461 34.8223 34.5102 34.8223 40.3121H92.4172H150.012C149.965 34.4631 145.24 29.7461 139.381 29.7461Z" fill="url(#paint1_linear_8818_10688)"/>
<path d="M34.8223 40.0283H150.012V127.623C150.012 131.538 148.453 135.264 145.713 138C142.972 140.736 139.192 142.292 135.318 142.292H49.5163C45.5947 142.292 41.8622 140.736 39.1218 138C36.3814 135.264 34.8223 131.491 34.8223 127.623V40.0283Z" fill="url(#paint2_linear_8818_10688)"/>
<path d="M130.169 51.1133H54.62C53.0608 51.1133 51.7852 52.3869 51.7852 53.9435C51.7852 55.5001 53.0608 56.7737 54.62 56.7737H130.169C131.728 56.7737 133.004 55.5001 133.004 53.9435C133.051 52.3869 131.776 51.1133 130.169 51.1133Z" fill="url(#paint3_linear_8818_10688)"/>
<path d="M130.169 75.2178H54.62C53.0608 75.2178 51.7852 76.4914 51.7852 78.048C51.7852 79.6046 53.0608 80.8782 54.62 80.8782H130.169C131.728 80.8782 133.004 79.6046 133.004 78.048C133.051 76.4914 131.776 75.2178 130.169 75.2178Z" fill="url(#paint4_linear_8818_10688)"/>
<path d="M130.169 99.3682H54.62C53.0608 99.3682 51.7852 100.642 51.7852 102.198C51.7852 103.755 53.0608 105.029 54.62 105.029H130.169C131.728 105.029 133.004 103.755 133.004 102.198C133.051 100.642 131.776 99.3682 130.169 99.3682Z" fill="url(#paint5_linear_8818_10688)"/>
<path d="M130.169 123.52H54.62C53.0608 123.52 51.7852 124.793 51.7852 126.35C51.7852 127.906 53.0608 129.18 54.62 129.18H130.169C131.728 129.18 133.004 127.906 133.004 126.35C133.004 124.793 131.776 123.52 130.169 123.52Z" fill="url(#paint6_linear_8818_10688)"/>
<g filter="url(#filter0_d_8818_10688)">
<path d="M54.1466 94.1797H13.9388C10.726 94.1797 8.08008 96.774 8.08008 100.029V157.434C8.08008 160.642 10.6787 163.283 13.9388 163.283H54.1466C57.3594 163.283 60.0053 160.689 60.0053 157.434V100.029C59.9581 96.8212 57.3594 94.1797 54.1466 94.1797Z" fill="url(#paint7_linear_8818_10688)"/>
</g>
<g filter="url(#filter1_d_8818_10688)">
<path d="M168.628 4.50977H124.215C122.136 4.50977 120.482 6.20788 120.482 8.23618V29.0852C120.482 31.1607 122.183 32.8117 124.215 32.8117H168.628C170.707 32.8117 172.36 31.1135 172.36 29.0852V8.28335C172.408 6.20788 170.707 4.50977 168.628 4.50977Z" fill="url(#paint8_linear_8818_10688)"/>
</g>
<path d="M49.6578 122.906H18.427C17.3876 122.906 16.5371 123.755 16.5371 124.793C16.5371 125.831 17.3876 126.68 18.427 126.68H49.6578C50.6972 126.68 51.5477 125.831 51.5477 124.793C51.5477 123.755 50.6972 122.906 49.6578 122.906Z" fill="url(#paint9_linear_8818_10688)"/>
<path d="M49.6578 149.698H18.6633C17.6239 149.698 16.7734 150.5 16.7734 151.538C16.7734 152.576 17.6239 153.377 18.6633 153.377H49.6578C50.6973 153.377 51.5478 152.576 51.5478 151.538C51.5478 150.547 50.6973 149.698 49.6578 149.698Z" fill="url(#paint10_linear_8818_10688)"/>
<path d="M49.6578 135.689H18.6633C17.6239 135.689 16.7734 136.491 16.7734 137.529C16.7734 138.567 17.6239 139.369 18.6633 139.369H49.6578C50.6973 139.369 51.5478 138.567 51.5478 137.529C51.5478 136.539 50.6973 135.689 49.6578 135.689Z" fill="url(#paint11_linear_8818_10688)"/>
<path d="M29.8139 103.048H20.6951C18.6634 103.048 17.0098 104.699 17.0098 106.727V109.274C17.0098 111.303 18.6634 112.954 20.6951 112.954H29.8139C31.8455 112.954 33.4992 111.303 33.4992 109.274V106.727C33.4992 104.699 31.8455 103.048 29.8139 103.048Z" fill="url(#paint12_linear_8818_10688)"/>
<path d="M131.444 22.9999C133.806 22.9999 135.744 21.066 135.744 18.7075C135.744 16.349 133.806 14.415 131.444 14.415C129.082 14.415 127.145 16.349 127.145 18.7075C127.145 21.066 129.034 22.9999 131.444 22.9999Z" fill="#5D4DA8"/>
<path d="M146.846 22.9999C149.209 22.9999 151.146 21.066 151.146 18.7075C151.146 16.349 149.209 14.415 146.846 14.415C144.484 14.415 142.547 16.349 142.547 18.7075C142.547 21.066 144.437 22.9999 146.846 22.9999Z" fill="#5D4DA8"/>
<path d="M162.249 22.9999C164.611 22.9999 166.548 21.066 166.548 18.7075C166.548 16.349 164.611 14.415 162.249 14.415C159.886 14.415 157.949 16.349 157.949 18.7075C157.949 21.066 159.839 22.9999 162.249 22.9999Z" fill="#5D4DA8"/>
<path d="M150.531 125.642L139.617 137.67L170.375 165.547L181.29 153.519L150.531 125.642Z" fill="url(#paint13_linear_8818_10688)"/>
<path fill-rule="evenodd" clip-rule="evenodd" d="M162.061 105.737C162.061 130.878 141.65 151.256 116.467 151.256C91.2841 151.256 70.873 130.878 70.873 105.737C70.873 80.5951 91.2841 60.2178 116.467 60.2178C141.65 60.2178 162.061 80.5951 162.061 105.737ZM155.068 105.737C155.068 127.01 137.776 144.274 116.467 144.274C95.1584 144.274 77.8657 127.01 77.8657 105.737C77.8657 84.4631 95.1584 67.1989 116.467 67.1989C137.823 67.1989 155.068 84.4631 155.068 105.737Z" fill="url(#paint14_linear_8818_10688)"/>
<path d="M116.513 144.274C137.822 144.274 155.115 127.01 155.115 105.736C155.115 84.4624 137.822 67.1982 116.513 67.1982C95.2048 67.1982 77.9121 84.4624 77.9121 105.736C77.9121 127.01 95.1575 144.274 116.513 144.274Z" fill="url(#paint15_linear_8818_10688)" fill-opacity="0.2"/>
<path d="M125.774 105.736L136.83 94.6982C137.87 93.6133 138.437 92.1511 138.39 90.6416C138.39 89.1322 137.775 87.7171 136.689 86.6322C135.602 85.5473 134.185 84.9813 132.673 84.9341C131.161 84.9341 129.696 85.5001 128.609 86.4907L117.553 97.5284L106.497 86.4907C105.978 85.9247 105.316 85.5001 104.607 85.1699C103.899 84.8398 103.143 84.6982 102.34 84.6982C101.584 84.6982 100.78 84.8397 100.072 85.1228C99.363 85.4058 98.7015 85.8303 98.1345 86.3964C97.5675 86.9624 97.1423 87.5756 96.8588 88.3303C96.5753 89.0379 96.4336 89.7926 96.4336 90.5945C96.4336 91.3492 96.6226 92.1511 96.9061 92.8586C97.2368 93.5662 97.662 94.1794 98.229 94.7454L109.285 105.783L98.3708 116.774C97.8038 117.293 97.3785 117.953 97.0478 118.661C96.7171 119.368 96.5753 120.123 96.5753 120.925C96.5753 121.679 96.7171 122.481 97.0006 123.189C97.2841 123.896 97.7093 124.557 98.2763 125.123C98.8432 125.689 99.4574 126.113 100.213 126.396C100.922 126.679 101.678 126.821 102.481 126.821C103.237 126.821 104.04 126.632 104.749 126.349C105.458 126.019 106.119 125.594 106.639 125.028L117.695 113.991L128.751 125.028C129.838 126.019 131.302 126.538 132.767 126.444C134.232 126.396 135.649 125.783 136.689 124.745C137.728 123.708 138.342 122.293 138.39 120.83C138.437 119.368 137.917 117.953 136.925 116.821L125.774 105.736Z" fill="#DB5461"/>
<path d="M117.79 131.019C132.768 131.019 144.91 129.224 144.91 127.009C144.91 124.795 132.768 123 117.79 123C102.812 123 90.6699 124.795 90.6699 127.009C90.6699 129.224 102.812 131.019 117.79 131.019Z" fill="#DB5461" fill-opacity="0.1"/>
<path d="M86.4163 153.614C86.7943 152.01 89.0622 152.01 89.4402 153.614L90.7159 158.944C90.8576 159.51 91.2828 159.935 91.8498 160.076L97.1888 161.35C98.7952 161.727 98.7952 163.991 97.1888 164.369L91.8498 165.642C91.2828 165.784 90.8576 166.208 90.7159 166.774L89.4402 172.105C89.0622 173.708 86.7943 173.708 86.4163 172.105L85.1406 166.774C84.9989 166.208 84.5737 165.784 84.0067 165.642L78.6677 164.369C77.0613 163.991 77.0613 161.727 78.6677 161.35L84.0067 160.076C84.5737 159.935 84.9989 159.51 85.1406 158.944L86.4163 153.614Z" fill="url(#paint16_linear_8818_10688)"/>
<path d="M25.0413 11.821C25.4193 10.2172 27.6872 10.2172 28.0652 11.821L29.3409 17.1512C29.4826 17.7172 29.9078 18.1417 30.4748 18.2833L35.8138 19.5568C37.4202 19.9342 37.4202 22.1984 35.8138 22.5757L30.4748 23.8493C29.9078 23.9908 29.4826 24.4153 29.3409 24.9814L28.0652 30.3116C27.6872 31.9153 25.4193 31.9153 25.0413 30.3116L23.7656 24.9814C23.6239 24.4153 23.1987 23.9908 22.6317 23.8493L17.2927 22.5757C15.6863 22.1984 15.6863 19.9342 17.2927 19.5568L22.6317 18.2833C23.1987 18.1417 23.6239 17.7172 23.7656 17.1512L25.0413 11.821Z" fill="url(#paint17_linear_8818_10688)"/>
<path fill-rule="evenodd" clip-rule="evenodd" d="M90.2448 12.7174C91.6622 12.7174 92.8434 11.5381 92.8434 10.123C92.8434 8.70794 91.6622 7.52869 90.2448 7.52869C88.8273 7.52869 87.6461 8.70794 87.6461 10.123C87.6461 11.5381 88.7801 12.7174 90.2448 12.7174ZM90.2448 14.6513C92.7489 14.6513 94.7805 12.623 94.7805 10.123C94.7805 7.62303 92.7489 5.59473 90.2448 5.59473C87.7406 5.59473 85.709 7.62303 85.709 10.123C85.709 12.623 87.7406 14.6513 90.2448 14.6513Z" fill="url(#paint18_linear_8818_10688)"/>
<path d="M170.753 83.8968C170.517 82.9534 171.415 82.0572 172.36 82.3402L178.832 84.1798C179.777 84.4628 180.108 85.6421 179.399 86.3496L174.58 91.0194C173.871 91.727 172.69 91.3968 172.407 90.4062L170.753 83.8968Z" fill="url(#paint19_linear_8818_10688)"/>
<path d="M18.947 72.8116C19.8919 72.5758 20.7896 73.472 20.5062 74.4154L18.6635 80.8777C18.38 81.821 17.1988 82.1512 16.4901 81.4437L11.8126 76.6324C11.1039 75.9248 11.4346 74.7456 12.4268 74.4626L18.947 72.8116Z" fill="url(#paint20_linear_8818_10688)"/>
<path d="M142.453 162.151C143.398 161.916 144.296 162.812 144.012 163.755L142.169 170.217C141.886 171.161 140.705 171.491 139.996 170.784L135.318 165.972C134.61 165.265 134.94 164.085 135.933 163.802L142.453 162.151Z" fill="url(#paint21_linear_8818_10688)"/>
<path fill-rule="evenodd" clip-rule="evenodd" d="M176.755 50.359C178.172 50.359 179.353 49.1797 179.353 47.7646C179.353 46.3495 178.172 45.1703 176.755 45.1703C175.337 45.1703 174.156 46.3495 174.156 47.7646C174.156 49.1797 175.337 50.359 176.755 50.359ZM176.755 52.2929C179.259 52.2929 181.29 50.2646 181.29 47.7646C181.29 45.2646 179.259 43.2363 176.755 43.2363C174.25 43.2363 172.219 45.2646 172.219 47.7646C172.219 50.2646 174.25 52.2929 176.755 52.2929Z" fill="url(#paint22_linear_8818_10688)"/>
<path d="M170.375 165.5L181.289 153.472L182.943 154.981C184.549 156.443 185.494 158.425 185.589 160.594C185.683 162.764 184.927 164.84 183.51 166.443C182.045 168.047 180.061 168.991 177.887 169.085C175.714 169.179 173.635 168.425 172.029 167.009L170.375 165.5Z" fill="#5D4DA8"/>
<defs>
<filter id="filter0_d_8818_10688" x="0.0800781" y="90.1797" width="67.9258" height="85.1035" filterUnits="userSpaceOnUse" color-interpolation-filters="sRGB">
<feFlood flood-opacity="0" result="BackgroundImageFix"/>
<feColorMatrix in="SourceAlpha" type="matrix" values="0 0 0 0 0 0 0 0 0 0 0 0 0 0 0 0 0 0 127 0" result="hardAlpha"/>
<feOffset dy="4"/>
<feGaussianBlur stdDeviation="4"/>
<feComposite in2="hardAlpha" operator="out"/>
<feColorMatrix type="matrix" values="0 0 0 0 0.364706 0 0 0 0 0.301961 0 0 0 0 0.658824 0 0 0 0.5 0"/>
<feBlend mode="normal" in2="BackgroundImageFix" result="effect1_dropShadow_8818_10688"/>
<feBlend mode="normal" in="SourceGraphic" in2="effect1_dropShadow_8818_10688" result="shape"/>
</filter>
<filter id="filter1_d_8818_10688" x="112.482" y="0.509766" width="67.8789" height="44.3018" filterUnits="userSpaceOnUse" color-interpolation-filters="sRGB">
<feFlood flood-opacity="0" result="BackgroundImageFix"/>
<feColorMatrix in="SourceAlpha" type="matrix" values="0 0 0 0 0 0 0 0 0 0 0 0 0 0 0 0 0 0 127 0" result="hardAlpha"/>
<feOffset dy="4"/>
<feGaussianBlur stdDeviation="4"/>
<feComposite in2="hardAlpha" operator="out"/>
<feColorMatrix type="matrix" values="0 0 0 0 0.364706 0 0 0 0 0.301961 0 0 0 0 0.658824 0 0 0 0.5 0"/>
<feBlend mode="normal" in2="BackgroundImageFix" result="effect1_dropShadow_8818_10688"/>
<feBlend mode="normal" in="SourceGraphic" in2="effect1_dropShadow_8818_10688" result="shape"/>
</filter>
<linearGradient id="paint0_linear_8818_10688" x1="92.9429" y1="-17.549" x2="94.6743" y2="279.852" gradientUnits="userSpaceOnUse">
<stop stop-color="white" stop-opacity="0"/>
<stop offset="1" stop-color="#C1B7F1"/>
</linearGradient>
<linearGradient id="paint1_linear_8818_10688" x1="34.7321" y1="31.3289" x2="150.097" y2="39.4773" gradientUnits="userSpaceOnUse">
<stop stop-color="#5D4DA8"/>
<stop offset="1" stop-color="#8465DE"/>
</linearGradient>
<linearGradient id="paint2_linear_8818_10688" x1="31.8209" y1="89.9557" x2="198.215" y2="92.9187" gradientUnits="userSpaceOnUse">
<stop stop-color="white"/>
<stop offset="1" stop-color="#C1BCFF"/>
</linearGradient>
<linearGradient id="paint3_linear_8818_10688" x1="48.3545" y1="53.9435" x2="137.838" y2="53.9435" gradientUnits="userSpaceOnUse">
<stop stop-color="#5D4DA8"/>
<stop offset="1" stop-color="#D6D2FF"/>
</linearGradient>
<linearGradient id="paint4_linear_8818_10688" x1="48.3545" y1="78.048" x2="137.838" y2="78.048" gradientUnits="userSpaceOnUse">
<stop stop-color="#5D4DA8"/>
<stop offset="1" stop-color="#D6D2FF"/>
</linearGradient>
<linearGradient id="paint5_linear_8818_10688" x1="48.3545" y1="102.198" x2="137.838" y2="102.198" gradientUnits="userSpaceOnUse">
<stop stop-color="#5D4DA8"/>
<stop offset="1" stop-color="#D6D2FF"/>
</linearGradient>
<linearGradient id="paint6_linear_8818_10688" x1="48.3545" y1="126.35" x2="137.838" y2="126.35" gradientUnits="userSpaceOnUse">
<stop stop-color="#5D4DA8"/>
<stop offset="1" stop-color="#D2DFFF"/>
</linearGradient>
<linearGradient id="paint7_linear_8818_10688" x1="8.08551" y1="126.604" x2="107.614" y2="134.791" gradientUnits="userSpaceOnUse">
<stop stop-color="white"/>
<stop offset="1" stop-color="#ACAAF4"/>
</linearGradient>
<linearGradient id="paint8_linear_8818_10688" x1="120.488" y1="17.7892" x2="216.725" y2="37.1017" gradientUnits="userSpaceOnUse">
<stop stop-color="white"/>
<stop offset="1" stop-color="#ACAAF4"/>
</linearGradient>
<linearGradient id="paint9_linear_8818_10688" x1="55.6118" y1="124.793" x2="13.4584" y2="124.793" gradientUnits="userSpaceOnUse">
<stop stop-color="#D8D2FF"/>
<stop offset="1" stop-color="#5D4DA8"/>
</linearGradient>
<linearGradient id="paint10_linear_8818_10688" x1="55.5778" y1="151.538" x2="13.7873" y2="151.538" gradientUnits="userSpaceOnUse">
<stop stop-color="#5D4DA8"/>
<stop offset="1" stop-color="#6595DE"/>
</linearGradient>
<linearGradient id="paint11_linear_8818_10688" x1="55.5778" y1="137.529" x2="13.7873" y2="137.529" gradientUnits="userSpaceOnUse">
<stop stop-color="#5D4DA8"/>
<stop offset="1" stop-color="#6595DE"/>
</linearGradient>
<linearGradient id="paint12_linear_8818_10688" x1="44.8888" y1="108.001" x2="14.9378" y2="108.001" gradientUnits="userSpaceOnUse">
<stop offset="0.2438" stop-color="#5D4DA8"/>
<stop offset="1" stop-color="#6BA1E0"/>
</linearGradient>
<linearGradient id="paint13_linear_8818_10688" x1="154.966" y1="151.603" x2="165.959" y2="139.526" gradientUnits="userSpaceOnUse">
<stop stop-color="#5D4DA8"/>
<stop offset="1" stop-color="#6571DE"/>
</linearGradient>
<linearGradient id="paint14_linear_8818_10688" x1="70.6492" y1="105.44" x2="162.417" y2="106.036" gradientUnits="userSpaceOnUse">
<stop stop-color="#5D4DA8"/>
<stop offset="1" stop-color="#6571DE"/>
</linearGradient>
<linearGradient id="paint15_linear_8818_10688" x1="103.56" y1="72.187" x2="142.337" y2="172.975" gradientUnits="userSpaceOnUse">
<stop stop-color="white"/>
<stop offset="1" stop-color="#DBD2FF"/>
</linearGradient>
<linearGradient id="paint16_linear_8818_10688" x1="72.2989" y1="162.758" x2="103.579" y2="162.961" gradientUnits="userSpaceOnUse">
<stop stop-color="#5D4DA8"/>
<stop offset="1" stop-color="#65C1DE"/>
</linearGradient>
<linearGradient id="paint17_linear_8818_10688" x1="10.918" y1="20.965" x2="42.1977" y2="21.1683" gradientUnits="userSpaceOnUse">
<stop stop-color="#5D4DA8"/>
<stop offset="1" stop-color="#65ABDE"/>
</linearGradient>
<linearGradient id="paint18_linear_8818_10688" x1="85.6748" y1="10.0934" x2="94.7984" y2="10.1528" gradientUnits="userSpaceOnUse">
<stop stop-color="#5D4DA8"/>
<stop offset="1" stop-color="#65B2DE"/>
</linearGradient>
<linearGradient id="paint19_linear_8818_10688" x1="169.374" y1="90.1787" x2="178.746" y2="81.136" gradientUnits="userSpaceOnUse">
<stop stop-color="#5D4DA8"/>
<stop offset="1" stop-color="#65C8DE"/>
</linearGradient>
<linearGradient id="paint20_linear_8818_10688" x1="12.6383" y1="71.4094" x2="21.6533" y2="80.8067" gradientUnits="userSpaceOnUse">
<stop stop-color="#5D4DA8"/>
<stop offset="1" stop-color="#65C8DE"/>
</linearGradient>
<linearGradient id="paint21_linear_8818_10688" x1="136.14" y1="160.745" x2="145.155" y2="170.142" gradientUnits="userSpaceOnUse">
<stop stop-color="#5D4DA8"/>
<stop offset="1" stop-color="#65A4DE"/>
</linearGradient>
<linearGradient id="paint22_linear_8818_10688" x1="172.199" y1="47.7352" x2="181.323" y2="47.7944" gradientUnits="userSpaceOnUse">
<stop stop-color="#5D4DA8"/>
<stop offset="1" stop-color="#6587DE"/>
</linearGradient>
</defs>
</svg>
